inDegrees=no
num_controls=7
num_derivatives=13
num_iterations=123
num_multipliers=7
num_parameters=0
num_slacks=7
num_states=26
objective=5.761882
objective_accelerations=0.492402
objective_balance=0.039424
objective_effort=0.482513
objective_height=4.652379
objective_ligament=0.095164
solver_duration=1278.465086
status=Solve_Succeeded
success=true
DataType=double
version=3
OpenSimVersion=4.4-2022-07-23-0e9fedc
endheader
time	/jointset/ground_pelvis/pelvis_tilt/value	/jointset/ground_pelvis/pelvis_tx/value	/jointset/ground_pelvis/pelvis_ty/value	/jointset/hip_l/hip_flexion_l/value	/jointset/hip_l/hip_adduction_l/value	/jointset/hip_l/hip_rotation_l/value	/jointset/back/lumbar_extension/value	/jointset/patellofemoral_l/patellar_flexion_l/value	/jointset/knee_l/knee_flexion_l/value	/jointset/knee_l/knee_adduction_l/value	/jointset/knee_l/knee_rotation_l/value	/jointset/ankle_l/ankle_angle_l/value	/jointset/subtalar_l/subtalar_angle_l/value	/jointset/ground_pelvis/pelvis_tilt/speed	/jointset/ground_pelvis/pelvis_tx/speed	/jointset/ground_pelvis/pelvis_ty/speed	/jointset/hip_l/hip_flexion_l/speed	/jointset/hip_l/hip_adduction_l/speed	/jointset/hip_l/hip_rotation_l/speed	/jointset/back/lumbar_extension/speed	/jointset/patellofemoral_l/patellar_flexion_l/speed	/jointset/knee_l/knee_flexion_l/speed	/jointset/knee_l/knee_adduction_l/speed	/jointset/knee_l/knee_rotation_l/speed	/jointset/ankle_l/ankle_angle_l/speed	/jointset/subtalar_l/subtalar_angle_l/speed	/forceset/tau_hip_flexion_l	/forceset/tau_hip_adduction_l	/forceset/tau_hip_rotation_l	/forceset/tau_knee_flexion_l	/forceset/tau_ankle_angle_l	/forceset/tau_subtalar_angle_l	/forceset/tau_lumbar_extension	lambda_cid13_p0	lambda_cid13_p1	lambda_cid13_p2	lambda_cid13_p3	lambda_cid13_p4	lambda_cid13_p5	lambda_cid14_p0	/jointset/ground_pelvis/pelvis_tilt/accel	/jointset/ground_pelvis/pelvis_tx/accel	/jointset/ground_pelvis/pelvis_ty/accel	/jointset/hip_l/hip_flexion_l/accel	/jointset/hip_l/hip_adduction_l/accel	/jointset/hip_l/hip_rotation_l/accel	/jointset/back/lumbar_extension/accel	/jointset/patellofemoral_l/patellar_flexion_l/accel	/jointset/knee_l/knee_flexion_l/accel	/jointset/knee_l/knee_adduction_l/accel	/jointset/knee_l/knee_rotation_l/accel	/jointset/ankle_l/ankle_angle_l/accel	/jointset/subtalar_l/subtalar_angle_l/accel	gamma_cid13_p0	gamma_cid13_p1	gamma_cid13_p2	gamma_cid13_p3	gamma_cid13_p4	gamma_cid13_p5	gamma_cid14_p0
1	-0.1358691258033642	-0.07168473360588716	0.7025325815784684	1.29985095611616	-0.3290565743025513	0.04347364745060385	-0.959930966670812	1.296187476150118	1.29618747615015	-0.07670853813033238	-0.1745326323411308	0.2214431353842281	0.03981808153023665	0.1046237603455398	0.02534376837269079	0.0687509625747119	-0.2950847057732004	-0.004133882566500042	-0.06513652774379686	-0.0006902471041221049	-0.1630718977610291	-0.1630718977610339	-0.0004370948179175426	-1.023764508583211e-05	0.01859422467967862	0.003380955904976558	-0.387378593190611	0.02200182483990143	-0.002159872776621473	-0.3360319505775695	0.06398701507145403	0.02899464408742644	0.431348110420643	-30.21726858850583	-6.72530637111128	-0.0403174473654841	9.881854687465399	-793.6420887068168	-64.46846879648258	-0.08294494199317133	0.9467608362909865	0.08045521123927167	1.413729605961057	-4.86007868562773	-0.08802785482801588	-1.57839799850009	0.1213036108228422	-4.615961858044585	-4.615961858044766	-0.2602111913641871	-0.01361068333821721	-1.021290563476576	-0.4934974593283454	-9.794268122821118e-09	3.433466313632247e-09	5.673725639938844e-08	4.397163977334129e-09	-2.29433671532786e-08	8.828956987789871e-08	-1.470690870093744e-08
1.01	-0.1347759948929043	-0.07142723182472263	0.7032905301410107	1.296658123094152	-0.3291015905950475	0.04274283764274542	-0.959931087388081	1.294326420463807	1.29432642046391	-0.07672428031090421	-0.1745326131164875	0.2215781361143249	0.03982817592372927	0.11400023035918	0.02616229944341913	0.08282484408376581	-0.3434545150671455	-0.004861119531962869	-0.08101698419408697	0.0006859038667383555	-0.2091244246403912	-0.2091244246404023	-0.002709585931371203	1.229045981569796e-05	0.008396857558365325	-0.001355538712885648	-0.3864979784961859	0.02217182211035598	-0.002219126248567432	-0.3357399847880329	0.06386467095773422	0.02912496990830039	0.4308979309391394	-30.21488823951834	-6.793466737489149	-0.01672270795031746	9.758837848763132	-793.1614683444745	-64.54603313857618	-0.08957095320100636	0.9327594240298865	0.08341094266577026	1.402125716049678	-4.821327212770449	-0.06383867459175284	-1.591618235880978	0.1487408955609044	-4.597671932783461	-4.597671932784237	-0.2105142754780495	0.009934256507048662	-1.020320043316591	-0.4627531118776318	-1.622134824174782e-08	-4.544238579585486e-09	7.869525054770036e-08	1.068605854543089e-08	-2.908746953056265e-08	1.004947180275459e-07	-1.965520294320045e-08
1.02	-0.1335891654142917	-0.07116137295531574	0.7041887991771772	1.292982412946878	-0.3291536326686373	0.04185347351685085	-0.9599168525860393	1.292005284742723	1.292005284742908	-0.07676269664343294	-0.1745324186710422	0.2216108911218366	0.03979109984127058	0.1233634739780091	0.02701518602116059	0.09681505729960513	-0.3916601308208044	-0.005539038784872389	-0.09684739134788609	0.002180857051323159	-0.2550879047158189	-0.255087904715834	-0.004971925210517105	2.480652882131273e-05	-0.001854919837265685	-0.006053139285251612	-0.3856173638018554	0.02234181938077501	-0.002278379720294401	-0.3354480189985047	0.06374232684401901	0.02925529572912835	0.4304477514575566	-30.22375871356776	-6.858583700901362	0.005160604829685285	9.684603536089559	-792.8280298089786	-64.60518433519721	-0.09853880621338078	0.9441155573286449	0.08732631264199314	1.396995947318167	-4.827239977570488	-0.078164312317406	-1.568388139201935	0.1450640535680257	-4.598152497257728	-4.598152497257439	-0.2581808245026623	-0.01561309051748021	-1.032172618339975	-0.4857186502290974	-2.278001900881802e-08	-1.430672212663487e-08	9.8384424681008e-08	1.667072344608929e-08	-3.563830445800967e-08	1.108426513443823e-07	-2.447602303610531e-08
1.03	-0.1323092417230086	-0.07088657150214794	0.7052265388467026	1.288825681731025	-0.3292121848334737	0.04080613654375822	-0.9598850469008759	1.289224983883127	1.2892249838836	-0.07682373659375781	-0.1745321060538089	0.2215411551700033	0.03970739680445196	0.1325726815667725	0.02797533872422436	0.1107179089493684	-0.439639303935841	-0.006162542541353208	-0.1126093663478219	0.004402374403841433	-0.3009557511349669	-0.3009557511349764	-0.007236690016495359	3.56707204022088e-05	-0.01207147048620198	-0.01066752149967707	-0.3863404758311623	0.02270378236800154	-0.002364949914180951	-0.3346212089026789	0.06344365433127085	0.02951801959710497	0.4318846686410452	-30.32592473170617	-6.978167376933825	0.05092111003497602	9.193619427174614	-793.4939076294411	-64.67362230051015	-0.1103171048417252	0.9020336009304551	0.1048994329630071	1.384676147087195	-4.776238282453749	-0.05312460957047424	-1.578531527572991	0.2940097363305488	-4.578617415691502	-4.578617415690851	-0.2107332393417809	0.009156197897974642	-1.013278687683727	-0.446315817214658	-2.934003253760396e-08	-2.408741770076417e-08	1.180504475896727e-07	2.265228396238606e-08	-4.219328971760121e-08	1.211716334894552e-07	-2.929554237238407e-08
1.04	-0.1309386839075884	-0.07060126058518491	0.706402856307381	1.284190562323196	-0.3292767082763286	0.03960149395122001	-0.9598243632100352	1.285986501219051	1.285986501219824	-0.07690744597827316	-0.1745317407898921	0.2213698772317779	0.03957814638345581	0.1414902988067572	0.02911707878021156	0.1245306155303262	-0.4873377692102315	-0.006733294388113544	-0.1283085152351083	0.007956458165825256	-0.3467242656120467	-0.3467242656120519	-0.009505812050335379	3.533586806263225e-05	-0.02216331711566945	-0.01516261612072189	-0.3870635878605676	0.02306574535520383	-0.002451520107877701	-0.3337943988068597	0.06314498181853236	0.02978074346505282	0.4333215858244487	-30.43949924843871	-7.094785620974311	0.0951032235038658	8.749576089816365	-794.3102840898511	-64.7244870167512	-0.1254458353349901	0.885797487572774	0.1236437832267996	1.378966933557112	-4.771098409441292	-0.06761393037342579	-1.555822916672178	0.4115773354605801	-4.578286108844088	-4.578286108844061	-0.2590522700750685	-0.01785289930178714	-1.007231814446041	-0.4618611315530411	-3.269989807008934e-08	-3.429453547814887e-08	1.347967071343213e-07	2.288653706066102e-08	-4.646442098229044e-08	1.246007833691543e-07	-3.316307525970291e-08
1.05	-0.129480319970455	-0.07030366143866904	0.7077167711442454	1.279079991916379	-0.329346658374273	0.03824030627780054	-0.9597219410006451	1.282290945416135	1.282290945416514	-0.07701395316531769	-0.1745314364450171	0.2210982031247624	0.03940452657245415	0.1501404190442278	0.03042926069413648	0.1382291573856489	-0.5347137344578106	-0.007243534904819216	-0.1439111438417765	0.01270656914863001	-0.392358567987277	-0.3923585679872801	-0.01179541405692421	2.594815294648762e-05	-0.03216020712060168	-0.0195392935528645	-0.3870150143447619	0.02340164034667378	-0.002558014089871716	-0.3328447510479656	0.06304347861740096	0.03008186694607347	0.4340107623303112	-30.44469557943814	-7.251500169379627	0.1507529565550682	8.290847737118439	-794.4000953364379	-64.82674467767121	-0.1445763761108637	0.8483058360894321	0.1389865102925066	1.361808467812509	-4.711463320628831	-0.04076311377145334	-1.55983329081736	0.5335157941365742	-4.551745815354312	-4.551745815354046	-0.2139020073380057	0.007614289012395551	-0.9942261698923539	-0.4222736265515338	-3.595975897769034e-08	-4.451497894938528e-08	1.514517240738444e-07	2.294118680212283e-08	-5.066418180963898e-08	1.278143134905605e-07	-3.700085857049177e-08
1.06	-0.1279367175220998	-0.06999214425005083	0.7091669735309208	1.273497538309413	-0.3294213176776771	0.03672362222666955	-0.959566660118518	1.278139897886768	1.278139897886766	-0.07714335394069657	-0.1745312067779343	0.2207268984024225	0.03918779947162955	0.1585380010519152	0.03190068720067467	0.1517881254926244	-0.5817144092339087	-0.00767513547961259	-0.1594077907745795	0.01852819270928089	-0.4378226109021826	-0.4378226109021836	-0.01408452971900888	2.040030298443072e-05	-0.04208944018055398	-0.02378407408527612	-0.386966440829069	0.02373753533810941	-0.002664508071617722	-0.3318951032890769	0.06294197541627955	0.03038299042705065	0.4346999388360772	-30.46128805987328	-7.405445853677458	0.2050776907689845	7.876474678413967	-794.6412014318821	-64.91350297991514	-0.1684062857515916	0.8352898416160104	0.155492701749579	1.351052183887721	-4.69604031514516	-0.05188594199107253	-1.534626581899222	0.6258798510295479	-4.544234216779134	-4.544234216779135	-0.2589550011742883	-0.0170849262711536	-0.9937004254498806	-0.4354817516068954	-3.954148181156882e-08	-5.578197724904183e-08	1.633278999279587e-07	2.378606274161945e-08	-5.508120135033726e-08	1.285724448500655e-07	-4.021150005835998e-08
1.07	-0.1263103084479394	-0.06966509946789165	0.7107520230769373	1.267446945700222	-0.3294998990630767	0.03505261195197924	-0.9593479163738343	1.273535136656465	1.273535136656448	-0.07729574186432714	-0.1745310311878844	0.2202566303223946	0.03892928447519168	0.1667094324377671	0.0335365391861081	0.1651939335102128	-0.628340720585624	-0.00802561473665111	-0.1747736688131847	0.02539034671851626	-0.483093812973	-0.4830938129730108	-0.01639193799604858	1.462260408183696e-05	-0.05195316870184726	-0.02789361427585431	-0.3866397329406771	0.02410284037431919	-0.002790615188332983	-0.3307077154978644	0.06288859880683791	0.03074252320118305	0.4351543476227805	-30.43455850431062	-7.598902704196392	0.2731931902040472	7.396668112102008	-794.5047846385324	-65.03949767853165	-0.1977406523251245	0.8029090791813729	0.1718768876533138	1.331155616140874	-4.63642281995913	-0.02431420270337444	-1.534517062321235	0.7418517489453815	-4.51318115181847	-4.513181151819988	-0.2164901378018148	0.007699914914342458	-0.98106234325734	-0.3949030328536116	-4.314032496067482e-08	-6.710464335872072e-08	1.749498821073171e-07	2.467297198952219e-08	-5.950977720557543e-08	1.291999698924481e-07	-4.338878293862604e-08
1.08	-0.1246032172015007	-0.06932084707773593	0.7124702928042181	1.260931990722534	-0.3295815222980774	0.03322855316739654	-0.9590554573744381	1.268478739815538	1.268478739815516	-0.07747117515008668	-0.1745309085534613	0.2196880543015963	0.03863043150083382	0.1746744355080895	0.03534220879997921	0.1784321617456176	-0.674586882928331	-0.008283505399410871	-0.190017492750996	0.03327124365074903	-0.5281497330272362	-0.5281497330272568	-0.01869360214641391	9.809169744251363e-06	-0.06175102833466992	-0.03185166966924671	-0.3863130250523809	0.02446814541050197	-0.002916722304880837	-0.3295203277066571	0.06283522219740624	0.03110205597528524	0.4356087564094019	-30.41926374996767	-7.789748353466466	0.3401966449975219	6.958602637549979	-794.5211723345162	-65.15226173978222	-0.2334268129660391	0.7940041785099875	0.1894562274372326	1.317536227451041	-4.62001051334357	-0.03336822313538139	-1.51021576174047	0.8296284356288465	-4.501177813462935	-4.501177813462932	-0.2578061758394519	-0.01689207335823856	-0.9805266477555865	-0.405184792169735	-4.583000198729776e-08	-7.806346917342171e-08	1.811622990897813e-07	2.475470691975103e-08	-6.293240988278401e-08	1.263729959113182e-07	-4.55734779738102e-08
